<svg width="90" height="83" viewBox="0 0 90 83" fill="none" xmlns="http://www.w3.org/2000/svg">
<path d="M76.7586 29.5531C75.8639 30.3649 74.6537 30.8206 73.3924 30.8206C72.1311 30.8206 70.921 30.3649 70.0262 29.5531L66.0746 25.943C65.1853 25.1264 64.6861 24.0216 64.6861 22.8699C64.6861 21.7182 65.1853 20.6134 66.0746 19.7968L75.0202 11.628C75.0374 11.6123 75.0501 11.593 75.0573 11.5717C75.0645 11.5505 75.0659 11.528 75.0614 11.5062C75.0569 11.4843 75.0466 11.4638 75.0314 11.4465C75.0163 11.4291 74.9967 11.4153 74.9744 11.4064C69.2018 9.14954 61.7153 10.2973 56.9621 14.6072C52.4129 18.7309 52.1545 24.9237 53.8209 30.338C54.0577 31.1071 54.0571 31.921 53.8192 32.6898C53.5813 33.4586 53.1153 34.1524 52.4727 34.6945L22.0625 60.4995C21.3367 61.093 20.7511 61.8155 20.3414 62.6227C19.9317 63.4299 19.7067 64.305 19.6799 65.1943C19.6532 66.0837 19.8254 66.9687 20.186 67.7952C20.5466 68.6217 21.088 69.3724 21.7771 70.0014C22.4662 70.6303 23.2886 71.1243 24.1938 71.4532C25.0991 71.782 26.0684 71.9388 27.0423 71.9139C28.0162 71.8891 28.9743 71.6831 29.8581 71.3086C30.7419 70.9341 31.5327 70.3989 32.1823 69.7358L60.6852 41.9179C61.2725 41.3407 62.0209 40.9207 62.85 40.7029C63.6791 40.4852 64.5575 40.4779 65.3909 40.6819C71.2725 42.1169 77.9575 41.8472 82.4539 37.8022C87.2862 33.4553 88.3286 25.7729 85.9871 21.3763C85.9765 21.357 85.9611 21.3403 85.942 21.3275C85.9229 21.3147 85.9008 21.3063 85.8775 21.3028C85.8542 21.2994 85.8303 21.301 85.8078 21.3077C85.7853 21.3143 85.7648 21.3257 85.7481 21.3409L76.7586 29.5531Z" stroke="#FF5991" stroke-width="3.5" stroke-miterlimit="10" stroke-linecap="round"/>
<path d="M39.3747 45.5874C36.3021 42.8586 34.8941 41.5889 33.9255 40.7253C33.4408 40.2855 33.1226 39.7159 33.0173 39.0994C32.912 38.4829 33.0251 37.8519 33.3402 37.2982C33.5063 37.026 33.7134 36.7763 33.9554 36.5566L36.7117 34.1023C36.9969 33.8414 37.3324 33.6308 37.7013 33.4811C38.2837 33.2457 38.9301 33.1752 39.5568 33.2788C40.1835 33.3824 40.7618 33.6553 41.2169 34.0622C42.1749 34.9113 43.9292 36.4699 47.0898 39.2822" stroke="#FF5991" stroke-width="3.5" stroke-linecap="round" stroke-linejoin="round"/>
<path d="M55.7349 46.7592C62.9331 52.8749 71.6642 60.1256 75.0708 62.7163C75.3256 62.9081 75.5336 63.1465 75.6814 63.4161C75.8293 63.6856 75.9137 63.9805 75.9292 64.2817C75.9448 64.5828 75.8912 64.8837 75.7718 65.1648C75.6524 65.4459 75.4699 65.701 75.236 65.9139L69.3685 71.2704C69.1296 71.4835 68.8459 71.6499 68.5343 71.7597C68.2228 71.8694 67.8901 71.9201 67.5565 71.9087C67.2228 71.8973 66.8952 71.824 66.5936 71.6933C66.2919 71.5626 66.0225 71.3772 65.8019 71.1484C62.8962 68.0696 55.0634 60.376 48.3521 53.9729" stroke="#FF5991" stroke-width="3.5" stroke-linecap="round" stroke-linejoin="round"/>
<path d="M3.04822 31.0604L8.21794 26.4471C8.29691 26.3762 8.39064 26.3205 8.4936 26.2833C8.59656 26.246 8.70665 26.2281 8.81736 26.2304C9.04052 26.2282 9.25573 26.306 9.41677 26.4471V26.4471C9.60398 26.6162 9.83093 26.7441 10.0804 26.8212C10.3298 26.8982 10.5952 26.9223 10.8564 26.8917C11.5297 26.8243 12.2486 26.6349 12.7144 26.2304C13.7691 25.2994 12.5492 23.4646 13.4773 22.2912C14.5386 21.0067 15.7006 19.7943 16.9543 18.6635C18.009 17.7197 22.1996 14.1176 29.2414 11.5285C31.4933 10.6972 33.8999 10.271 36.3289 10.2732C40.2998 10.2732 43.3601 11.8784 44.4605 12.7885C45.121 13.3624 45.7256 13.9875 46.2675 14.657C45.7383 14.4788 45.1976 14.3304 44.6486 14.2123C43.4938 13.9886 42.3094 13.9205 41.133 14.0101C38.7898 14.185 35.9633 15.1754 34.4533 16.2573C32.0099 18.0231 30.9605 20.3859 30.7953 23.4341C30.6758 25.7007 31.2734 26.9816 37.141 32.3413C37.3415 32.5458 37.4474 32.8133 37.4362 33.0875C37.4251 33.3618 37.2978 33.6214 37.0812 33.8117L33.8785 36.701C33.6552 36.9009 33.3559 37.0141 33.0432 37.0168C32.7305 37.0195 32.4289 36.9115 32.2015 36.7155C28.3449 33.1937 25.7592 31.4039 24.2914 30.5901C22.8236 29.7762 21.6424 29.5467 21.0746 29.4905C19.9595 29.3896 18.8376 29.6066 17.8631 30.1117C17.6921 30.1975 17.5357 30.3057 17.399 30.4328C17.1708 30.6482 16.9915 30.9028 16.8716 31.1818C16.7517 31.4608 16.6935 31.7587 16.7004 32.0584C16.7072 32.3581 16.779 32.6536 16.9116 32.9278C17.0442 33.202 17.2349 33.4495 17.4728 33.656L17.7734 33.9128C17.8514 33.9821 17.9135 34.0649 17.9558 34.1565C17.9982 34.248 18.02 34.3464 18.02 34.4457C18.02 34.5451 17.9982 34.6435 17.9558 34.735C17.9135 34.8265 17.8514 34.9094 17.7734 34.9787L12.609 39.5839C12.5307 39.6563 12.4373 39.7135 12.3343 39.7521C12.2313 39.7907 12.1209 39.8099 12.0095 39.8087C11.7864 39.8107 11.5713 39.7329 11.4101 39.592L3.04822 32.1391C2.89688 31.9935 2.8125 31.8005 2.8125 31.5997C2.8125 31.399 2.89688 31.206 3.04822 31.0604V31.0604Z" stroke="#FF5991" stroke-width="3.5" stroke-linecap="round" stroke-linejoin="round"/>
</svg>
