<svg width="77" height="36" viewBox="0 0 77 36" fill="none" xmlns="http://www.w3.org/2000/svg">
<g clip-path="url(#clip0_10685_556)">
<path d="M0 18.7382C0 13.5869 0 8.43561 0 3.28431C0 3.18979 0 3.09527 0 3.00075C0.0117863 2.70538 0.153222 2.51634 0.436094 2.45727C0.966478 2.35093 1.48508 2.2446 2.01546 2.18553C2.87586 2.07919 3.73626 1.99649 4.59666 1.91378C5.22134 1.85471 5.83423 1.81926 6.4589 1.79563C7.55503 1.76019 8.63937 1.72474 9.7355 1.74837C11.4092 1.78382 13.0828 1.9256 14.7329 2.2446C16.324 2.55179 17.8445 3.05983 19.2235 3.94595C20.5435 4.79662 21.569 5.93085 22.1583 7.40771C22.5826 8.45924 22.7122 9.55802 22.6887 10.6804C22.6769 11.7438 22.5119 12.7835 22.0993 13.7759C21.51 15.1465 20.5318 16.1626 19.2942 16.9542C19.2117 17.0014 19.1292 17.0487 19.0585 17.1077C18.6931 17.3795 18.7167 17.8639 19.1174 18.0884C19.1881 18.1238 19.2706 18.1593 19.3531 18.1947C20.1546 18.5373 20.8971 18.9745 21.5925 19.5062C22.9715 20.5577 23.8319 21.94 24.1384 23.6414C24.4566 25.3782 24.4095 27.1031 23.9144 28.7927C23.3015 30.8957 22.0051 32.4671 20.1428 33.5895C18.9878 34.2748 17.7384 34.7119 16.4537 35.0309C15.2869 35.3145 14.0964 35.4917 12.8942 35.6099C10.9966 35.7989 9.08725 35.8107 7.18965 35.7517C5.92852 35.7044 4.66738 35.5863 3.41803 35.4917C2.47513 35.4208 1.53222 35.3027 0.601102 35.1018C0.106077 34.9955 0 34.8655 0 34.3457C0 30.7185 0 27.0913 0 23.4642C0 21.881 0 20.3096 0 18.7382ZM4.59666 25.8153C4.59666 27.3513 4.59666 28.8872 4.59666 30.435C4.59666 30.6831 4.58488 30.9312 4.59666 31.1675C4.60845 31.5101 4.8206 31.7228 5.16241 31.7464C6.17603 31.7937 7.18965 31.8527 8.20328 31.8882C9.28762 31.9236 10.372 31.8882 11.4445 31.8055C12.3521 31.7464 13.2596 31.6401 14.1554 31.451C15.1454 31.2384 16.1001 30.9312 16.9723 30.3995C18.1391 29.6906 18.9995 28.7218 19.3531 27.3631C19.5771 26.5242 19.6006 25.6735 19.4946 24.8111C19.3178 23.3224 18.6342 22.1409 17.373 21.302C16.7837 20.9121 16.1237 20.6404 15.4519 20.4395C14.1082 20.0497 12.7174 19.9079 11.3266 19.8842C9.2994 19.8488 7.27216 19.8724 5.24491 19.8724C5.20955 19.8724 5.17419 19.8724 5.12705 19.8724C4.8206 19.8961 4.60845 20.1087 4.58488 20.4277C4.57309 20.5222 4.58488 20.6168 4.58488 20.7113C4.59666 22.4126 4.59666 24.114 4.59666 25.8153ZM7.8379 16.1626C8.3565 16.1626 8.8751 16.1626 9.39369 16.1626C10.6077 16.1744 11.8217 16.0917 13.0239 15.879C13.9314 15.7254 14.8036 15.4537 15.5933 14.9811C16.6069 14.3785 17.373 13.5633 17.7148 12.4054C17.9034 11.791 17.9388 11.1648 17.9152 10.5268C17.8681 9.45169 17.4909 8.53013 16.7366 7.76216C16.1001 7.11234 15.3222 6.69882 14.4854 6.39163C12.9885 5.84814 11.4327 5.64729 9.85336 5.61185C8.36828 5.5764 6.87142 5.60003 5.38635 5.71818C4.74989 5.76544 4.58488 5.91903 4.58488 6.56885C4.58488 9.49895 4.58488 12.4172 4.58488 15.3473C4.58488 15.4537 4.58488 15.56 4.59666 15.6545C4.62024 15.8672 4.7381 16.0326 4.93847 16.1035C5.04454 16.1507 5.17419 16.1626 5.29206 16.1626C6.14067 16.1626 6.98928 16.1626 7.8379 16.1626Z" fill="white"/>
<path d="M66.9227 36.0827C65.9445 36.0236 64.9662 35.9881 63.9879 35.9054C62.939 35.8109 61.9371 35.551 60.9353 35.2202C60.5581 35.102 60.181 34.9721 59.8156 34.8421C59.4738 34.7239 59.3795 34.5585 59.4502 34.2159C59.6506 33.2943 59.8509 32.3728 60.0395 31.4512C60.1102 31.1086 60.3224 30.9077 60.7467 31.0613C61.3714 31.2858 62.0078 31.4985 62.6443 31.723C63.4929 32.0183 64.3769 32.1719 65.2726 32.2192C66.2155 32.2665 67.1584 32.2901 68.1013 32.2664C69.0207 32.2428 69.9164 32.1129 70.7768 31.7584C71.0008 31.6639 71.2247 31.5576 71.4251 31.4158C72.1087 30.9668 72.4505 30.3052 72.5094 29.5018C72.5919 28.2258 72.1087 27.2215 71.0479 26.5008C70.2347 25.9455 69.3625 25.4965 68.4667 25.1066C67.3588 24.6222 66.2509 24.1732 65.143 23.7006C64.3651 23.3698 63.5872 23.0272 62.8682 22.5782C61.9607 22.0111 61.1828 21.3022 60.617 20.3925C60.1574 19.6481 59.8863 18.8447 59.8038 17.9704C59.6977 16.8953 59.7449 15.8201 60.0867 14.7804C60.5935 13.209 61.6189 12.0512 63.0097 11.2123C64.0469 10.5861 65.1783 10.2317 66.3688 10.019C67.6181 9.80633 68.8792 9.77088 70.1404 9.8654C71.8258 9.98355 73.4995 10.2435 75.126 10.7515C75.5385 10.8815 75.621 11.0233 75.5385 11.4368C75.3499 12.3229 75.1613 13.209 74.9728 14.0951C74.8785 14.5205 74.6663 14.6386 74.2538 14.4732C73.2991 14.1188 72.3208 13.8352 71.319 13.6934C70.5883 13.5871 69.8575 13.5516 69.1268 13.5398C68.2899 13.528 67.4767 13.5989 66.6752 13.847C65.8737 14.0833 65.2019 14.5087 64.7305 15.2176C63.9526 16.3872 64.0822 17.8405 65.0487 18.8565C65.5555 19.3764 66.1566 19.7663 66.8166 20.0498C67.5828 20.3925 68.3606 20.6878 69.1385 21.0069C70.2818 21.4794 71.4369 21.9402 72.5801 22.4365C73.3816 22.7909 74.1359 23.2517 74.8078 23.8188C75.951 24.764 76.6346 25.9809 76.8821 27.446C77.0589 28.5093 77.0707 29.5845 76.8468 30.6596C76.5168 32.3019 75.621 33.5543 74.2184 34.4522C73.2166 35.0902 72.1205 35.4683 70.9772 35.7164C69.6336 35.9763 68.2781 36.059 66.9227 36.0827Z" fill="white"/>
<path d="M40.0264 15.4774C40.0264 11.7085 40.0264 7.93953 40.0264 4.1824C40.0264 4.08788 40.0264 3.99336 40.0264 3.89884C40.0382 3.60346 40.1678 3.42624 40.4625 3.35535C40.8396 3.27265 41.2168 3.21357 41.5939 3.14268C42.3129 3.01272 43.0437 2.89457 43.7626 2.77642C44.1516 2.70553 44.4344 2.93002 44.458 3.31991C44.458 3.3908 44.458 3.4735 44.458 3.54439C44.458 5.55292 44.458 7.56146 44.458 9.5818C44.458 9.66451 44.458 9.74721 44.458 9.84173C44.4698 10.1726 44.6702 10.3852 45.0002 10.4207C45.1063 10.4325 45.2241 10.4325 45.342 10.4325C47.935 10.4325 50.528 10.4325 53.1209 10.4325C53.2388 10.4325 53.3685 10.4325 53.4863 10.4443C53.7338 10.4797 53.8988 10.6333 53.9342 10.8814C53.946 10.9287 53.946 10.976 53.946 11.0232C53.946 11.8621 53.946 12.7009 53.946 13.5398C53.946 13.5634 53.946 13.5989 53.946 13.6225C53.9224 13.9179 53.7456 14.1069 53.451 14.1424C53.3567 14.1542 53.2624 14.1542 53.1681 14.1542C50.5515 14.1542 47.9232 14.1542 45.3066 14.1542C45.2006 14.1542 45.0945 14.1542 45.0002 14.1542C44.7173 14.1778 44.5169 14.3787 44.4816 14.6622C44.4698 14.7449 44.4698 14.8276 44.4698 14.9221C44.4698 18.5966 44.4698 22.271 44.4698 25.9336C44.4698 26.997 44.5405 28.0603 44.8234 29.1C44.9059 29.4072 45.012 29.7144 45.1416 30.0098C45.6013 31.0377 46.391 31.6639 47.4871 31.912C48.3357 32.1128 49.1843 32.1128 50.0447 32.0656C50.7165 32.0183 51.3766 31.9474 52.013 31.7466C52.4491 31.6048 52.8852 31.4394 53.3095 31.274C53.3567 31.2621 53.392 31.2385 53.4392 31.2267C53.8163 31.0967 54.0992 31.2503 54.1935 31.6284C54.3349 32.1837 54.4528 32.7508 54.5942 33.3061C54.665 33.5897 54.7239 33.8732 54.7946 34.1568C54.8771 34.5112 54.7592 34.7475 54.4174 34.8775C53.1799 35.3501 51.9187 35.7636 50.5869 35.9054C49.4318 36.0354 48.2768 36.0354 47.1217 35.929C46.2495 35.8463 45.4009 35.6927 44.5877 35.3855C42.6194 34.6412 41.37 33.2116 40.71 31.2385C40.4507 30.4705 40.3092 29.6671 40.2032 28.8637C40.0499 27.7059 40.0264 26.5362 40.0264 25.3665C40.0382 22.0583 40.0264 18.7738 40.0264 15.4774Z" fill="white"/>
<path d="M29.7369 22.9207C29.7369 19.0099 29.7369 15.111 29.7369 11.2003C29.7369 11.1058 29.7369 11.0113 29.7369 10.9167C29.7487 10.6214 29.9137 10.456 30.2083 10.4205C30.2791 10.4087 30.3616 10.4087 30.4323 10.4087C31.4459 10.4087 32.4478 10.4087 33.4614 10.4087C33.5203 10.4087 33.5792 10.4087 33.6264 10.4087C33.98 10.4323 34.1568 10.5977 34.1686 10.964C34.1686 11.0349 34.1686 11.1176 34.1686 11.1885C34.1686 19.0218 34.1686 26.855 34.1686 34.6883C34.1686 34.7946 34.1804 34.901 34.1568 34.9955C34.1214 35.2672 33.9446 35.4445 33.6618 35.4445C32.5067 35.4445 31.3634 35.4445 30.2083 35.4445C29.9137 35.4445 29.7369 35.2554 29.7251 34.9719C29.7251 34.8774 29.7251 34.7828 29.7251 34.6883C29.7369 30.7776 29.7369 26.855 29.7369 22.9207Z" fill="white"/>
<path d="M31.9882 0C33.0607 0.0236298 33.9447 0.484411 34.4869 1.51231C34.7462 1.99672 34.8169 2.5402 34.7933 3.08369C34.7462 4.11158 34.3219 4.93863 33.4143 5.4703C32.3653 6.08467 30.727 6.00197 29.7606 4.92681C29.3362 4.45422 29.1241 3.8871 29.0769 3.26091C29.0416 2.88284 29.0652 2.50476 29.1477 2.1385C29.4541 0.767968 30.7035 0.0472596 31.6817 0.0354447C31.7642 0.0118149 31.8467 0.0118149 31.9882 0Z" fill="white"/>
</g>
<defs>
<clipPath id="clip0_10685_556">
<rect width="77" height="36" fill="white"/>
</clipPath>
</defs>
</svg>
