<svg width="80" height="54" viewBox="0 0 80 54" fill="none" xmlns="http://www.w3.org/2000/svg">
<path d="M46.2985 49.0529C46.7462 47.9905 47.17 46.992 47.5937 45.9936C49.2327 42.1435 50.8636 38.3013 52.4946 34.4432C52.5905 34.2116 52.7185 34.1397 52.9663 34.1397C54.949 34.1477 56.9398 34.1477 58.9225 34.1397C59.2583 34.1397 59.3862 34.2036 59.3622 34.5711C59.3303 35.3139 59.3542 35.3139 58.6107 35.3139C57.0517 35.3139 56.628 35.7373 56.628 37.3029C56.628 41.2968 56.628 45.2906 56.628 49.2845C56.628 49.6999 56.652 50.1073 56.6839 50.5226C56.7559 51.4332 57.1316 51.8007 58.0431 51.8486C58.3869 51.8726 58.7386 51.8726 59.0824 51.8566C59.2983 51.8486 59.3462 51.9205 59.3542 52.1282C59.3862 53.0468 59.3942 53.0468 58.4988 53.0468C56.1163 53.0468 53.7258 53.0388 51.3433 53.0548C51.0315 53.0548 50.9036 53.0148 50.9196 52.6554C50.9516 51.8646 50.9276 51.8646 51.7111 51.8646C52.0469 51.8646 52.3827 51.8806 52.7025 51.7767C53.1822 51.617 53.5339 51.3374 53.6059 50.7862C53.6459 50.4827 53.6618 50.1792 53.6618 49.8756C53.6618 45.4584 53.6618 41.0332 53.6618 36.6159C53.6618 36.552 53.6618 36.4801 53.6618 36.4162C53.6459 36.4082 53.6219 36.4003 53.6059 36.3923C53.422 36.8156 53.2381 37.239 53.0622 37.6543C50.9436 42.6227 48.8249 47.5831 46.7223 52.5515C46.5704 52.911 46.4105 53.1266 45.9787 53.0468C45.619 52.9829 45.1712 53.1905 44.9074 52.9589C44.6676 52.7432 44.5956 52.3279 44.4517 52.0004C42.2691 46.992 40.0945 41.9757 37.9119 36.9674C37.8639 36.8556 37.8079 36.7357 37.68 36.6319C37.68 36.7517 37.68 36.8795 37.68 36.9993C37.68 41.129 37.68 45.2507 37.68 49.3804C37.68 49.8037 37.696 50.2351 37.752 50.6504C37.8479 51.3534 38.3756 51.7767 39.231 51.8406C39.5908 51.8646 39.9506 51.8646 40.3103 51.8566C40.5262 51.8486 40.6141 51.8965 40.6221 52.1362C40.6461 53.0388 40.6541 53.0388 39.7507 53.0388C37.5681 53.0388 35.3775 53.0308 33.1949 53.0468C32.899 53.0468 32.8111 52.9829 32.8111 52.6793C32.8271 51.8646 32.8111 51.8646 33.6186 51.8566C33.7785 51.8566 33.9384 51.8566 34.0983 51.8486C35.2415 51.7527 35.7372 51.2655 35.7372 50.1232C35.7532 45.6741 35.7452 41.2329 35.7372 36.7837C35.7372 35.8491 35.4094 35.5056 34.482 35.3618C34.0343 35.2899 33.5786 35.3139 33.1229 35.3299C32.8671 35.3379 32.8191 35.25 32.8111 35.0184C32.8031 34.1637 32.7951 34.1637 33.6666 34.1637C35.5693 34.1637 37.4801 34.1717 39.3829 34.1557C39.7267 34.1477 39.8626 34.2755 39.9825 34.5631C42.0372 39.3158 44.0999 44.0605 46.1626 48.8053C46.2026 48.8532 46.2346 48.9091 46.2985 49.0529Z" fill="#040505"/>
<path d="M0.0239862 12.1496C0.0239862 8.25162 0.0239857 4.35358 0.0159908 0.455553C0.0159908 0.128054 0.0559664 0.00823975 0.431727 0.00823975C8.27474 0.0242153 16.1257 0.0242153 23.9688 0.00823975C24.3285 0.00823975 24.4085 0.0961052 24.4005 0.447567C24.3765 1.50195 24.3765 2.54835 24.4005 3.60274C24.4085 3.93023 24.3285 4.0181 23.9927 4.0181C18.5322 4.00212 13.0717 4.01011 7.61116 4.01011C5.54847 4.01011 4.00545 5.55175 4.00545 7.6046C4.00545 13.0443 4.00545 18.4919 4.01345 23.9316C4.01345 24.2671 3.95748 24.3869 3.58172 24.3789C2.54238 24.347 1.50305 24.355 0.463706 24.3789C0.119925 24.3869 0 24.315 0 23.9396C0.0319797 20.0016 0.0239862 16.0796 0.0239862 12.1496Z" fill="#040505"/>
<path d="M39.8143 0.0239672C43.7477 0.0239672 47.6732 0.0319521 51.6067 0.0159765C51.9265 0.0159765 51.9905 0.103844 51.9905 0.407379C51.9825 8.25936 51.9825 16.1113 51.9905 23.9633C51.9905 24.2908 51.9185 24.3787 51.5827 24.3707C50.5274 24.3467 49.4801 24.3467 48.4248 24.3707C48.081 24.3787 47.985 24.2988 47.985 23.9394C48.001 18.5636 47.9451 13.1878 48.017 7.81205C48.049 5.67132 46.3941 3.96194 44.2035 3.9859C38.8069 4.0498 33.4103 4.00188 28.0218 4.00986C27.702 4.00986 27.598 3.94596 27.606 3.60249C27.63 2.56408 27.63 1.52567 27.606 0.487257C27.598 0.11982 27.67 0 28.0697 0C31.9793 0.0239633 35.8968 0.0239672 39.8143 0.0239672Z" fill="#040505"/>
<path d="M12.1841 51.9364C8.26657 51.9364 4.34906 51.9364 0.431545 51.9444C0.103753 51.9444 0.0078125 51.8645 0.0078125 51.529C0.0158074 43.6931 0.0158074 35.8491 0.0078125 28.0131C0.0078125 27.7016 0.0957561 27.6057 0.399563 27.6057C1.50286 27.6137 2.61416 27.6057 3.71745 27.5977C3.9653 27.5977 4.00527 27.7095 3.99728 27.9172C3.98928 28.4524 3.99728 28.9796 3.99728 29.5148C3.99728 34.4273 4.02926 39.3397 3.98129 44.2442C3.9573 46.2252 5.48433 48.0065 7.77088 47.9825C13.1115 47.9346 18.4521 47.9665 23.7927 47.9665C24.4963 47.9665 24.3763 47.9425 24.3763 48.5336C24.3843 49.5321 24.3603 50.5306 24.3843 51.529C24.3923 51.8725 24.2804 51.9524 23.9526 51.9444C20.0431 51.9364 16.1096 51.9364 12.1841 51.9364Z" fill="#A88951"/>
<path d="M69.6836 53.0388C67.1652 53.0388 64.6468 53.0308 62.1284 53.0468C61.7847 53.0468 61.7207 52.951 61.7287 52.6315C61.7527 51.8566 61.7367 51.8646 62.5282 51.8567C62.856 51.8567 63.1918 51.8806 63.5196 51.8007C64.0792 51.6649 64.367 51.3774 64.447 50.8102C64.4869 50.5387 64.5109 50.2591 64.5109 49.9795C64.5189 45.722 64.5189 41.4646 64.5109 37.1991C64.5109 36.8157 64.4949 36.4243 64.367 36.0568C64.2471 35.6814 63.9753 35.4737 63.5915 35.4018C63.0798 35.298 62.5602 35.322 62.0405 35.33C61.8166 35.3379 61.7207 35.306 61.7207 35.0344C61.7207 34.1558 61.7127 34.1558 62.5762 34.1558C65.0146 34.1558 67.4531 34.1637 69.8915 34.1478C70.2033 34.1478 70.2992 34.2037 70.2912 34.5312C70.2673 35.322 70.2833 35.322 69.5157 35.322C69.172 35.322 68.8282 35.33 68.4844 35.3939C67.8848 35.5057 67.573 35.8252 67.501 36.4323C67.485 36.5761 67.485 36.7278 67.485 36.8716C67.485 41.3607 67.485 45.8419 67.485 50.331C67.485 50.5307 67.485 50.7304 67.509 50.9301C67.549 51.2815 67.7649 51.5132 68.1006 51.5291C70.2353 51.609 72.3779 51.7208 74.4326 50.8901C76.1835 50.1872 77.3907 48.9092 78.2941 47.3036C78.6219 46.7125 78.6219 46.7045 79.2615 46.9042C79.5174 46.9841 79.9091 46.9442 79.9891 47.1838C80.053 47.3675 79.8212 47.6631 79.7252 47.9027C79.0617 49.5003 78.3821 51.0978 77.7425 52.7034C77.6226 52.9909 77.4787 53.0628 77.1909 53.0628C74.6884 53.0309 72.186 53.0388 69.6836 53.0388Z" fill="#040505"/>
</svg>
