<svg width="80" height="29" viewBox="0 0 80 29" fill="none" xmlns="http://www.w3.org/2000/svg">
<path d="M0.0562744 20.4452C0.0562744 24.5543 6.75108 28.6635 17.4965 28.2277C17.4965 28.2277 17.4965 25.7373 17.4965 24.4921C17.4965 21.6281 14.7398 21.9394 12.377 22.0017C7.2574 22.1262 4.16317 20.5697 1.68778 18.0171C0.675118 16.8964 0.112533 15.3399 0.0562744 14.0947V20.4452Z" fill="url(#paint0_linear_10829_5197)"/>
<path d="M2.75659 0.27295C2.75659 0.27295 2.75659 2.76334 2.75659 4.00853C2.75659 6.87247 5.51328 6.56118 7.87615 6.49892C12.9957 6.3744 16.0899 7.93089 18.5653 10.4835C19.578 11.6042 20.1406 13.1607 20.1968 14.4059V8.11767C20.1968 4.19531 14.1771 0.335213 4.33185 0.335213C3.82552 0.210694 3.26292 0.21069 2.75659 0.27295Z" fill="url(#paint1_linear_10829_5197)"/>
<path d="M17.9465 10.7947C16.765 11.2306 15.1898 11.4796 13.7833 11.7286C10.4078 12.2267 6.75096 12.6625 6.6947 16.2736V23.4957C12.6019 22.9354 19.9718 18.8262 20.1968 14.8416C20.1968 14.7171 20.1968 14.5926 20.1968 14.4681C20.1968 13.9077 20.1406 8.2421 20.1406 8.2421C19.6342 10.1721 17.9465 10.7947 17.9465 10.7947Z" fill="url(#paint2_linear_10829_5197)"/>
<path d="M0 13.5964C0 13.721 0 13.8455 0 13.97C0 14.5303 0.0562621 20.2582 0.0562621 20.2582C0.56259 18.3282 2.25035 17.6433 2.25035 17.6433C3.43178 17.2075 5.00702 16.9585 6.41348 16.7094C9.789 16.2113 13.5021 15.7755 13.5021 12.1022V4.94232C7.65118 5.50266 0.281293 9.67406 0 13.5964Z" fill="url(#paint3_linear_10829_5197)"/>
<path d="M49.3952 8.1799H42.813V23.4958H46.4698V17.8924H49.3952C55.4149 17.8924 55.6962 14.1568 55.6962 12.8494C55.6962 11.4174 54.9649 8.1799 49.3952 8.1799ZM48.7202 16.0869H46.4698V10.11H48.7202C51.6456 10.11 52.2644 11.8532 52.2644 12.9739C52.2644 14.0946 51.7581 16.0869 48.7202 16.0869Z" fill="#2D2555"/>
<path d="M78.2559 10.4834C78.7623 10.5457 79.1561 10.5457 79.3811 10.1099C79.4936 9.86085 79.9999 8.8647 79.9999 8.8647C79.3811 8.5534 78.7623 8.36662 77.9746 8.2421C77.2433 8.11758 76.3431 8.05533 75.3305 8.05533C72.5738 8.05533 70.436 8.80245 68.8607 10.2967C67.3418 11.7909 66.5541 13.6587 66.5541 15.8378C66.5541 18.0791 67.2855 19.9469 68.8607 21.4411C70.3797 22.9354 72.5175 23.6825 75.2742 23.6825C77.2995 23.6825 78.8748 23.3712 79.9999 22.8108C79.9999 22.8108 79.4374 21.5657 79.2686 21.3166C79.0435 20.8808 78.5372 21.0676 78.0872 21.1298C76.9057 21.3789 73.8678 22.0637 71.955 19.9469C71.0548 18.8885 70.5485 17.5188 70.5485 15.8378C70.5485 14.219 70.9986 12.7248 71.8987 11.7286C74.0365 9.36278 77.7496 10.4834 78.2559 10.4834Z" fill="#2D2555"/>
<path d="M61.0971 8.1799H59.1281V23.5581H63.0099V9.7364C63.0661 8.74024 62.5035 8.1799 61.0971 8.1799Z" fill="#2D2555"/>
<path d="M34.9367 14.7174C33.3614 14.2193 32.2925 13.7835 31.6737 13.4099C31.1111 13.0364 30.8298 12.5383 30.8298 11.9157C30.8298 11.2308 31.1673 10.7327 31.7299 10.3592C32.3488 9.98563 33.1364 9.79885 34.2053 9.86111C34.8804 9.86111 35.5555 9.98563 36.1181 10.1101C36.3994 10.1724 36.6244 10.2347 36.8495 10.2969C37.3558 10.4837 37.9746 10.2347 38.2559 9.73659L38.706 8.98948C38.1434 8.74045 37.4121 8.4914 36.6244 8.30462C35.7806 8.11785 34.8242 7.99333 33.699 7.99333C31.6174 7.93107 29.9297 8.30463 28.6357 9.05175C27.3418 9.86112 26.6667 10.8573 26.6667 12.1025C26.6104 12.9118 26.948 13.7212 27.6793 14.4683C28.3544 15.2154 29.4796 15.7758 30.9986 16.2738C32.5176 16.7719 33.5302 17.1455 34.0928 17.5813C34.6554 17.9549 34.8804 18.4529 34.8804 19.0133C34.8804 19.6981 34.4866 20.1339 33.8115 20.5075C33.1364 20.8811 32.2363 21.0678 31.1111 21.0678C30.3235 21.0678 29.5921 20.9433 28.917 20.8188C28.6357 20.7565 28.4107 20.6943 28.1294 20.632C27.5668 20.4452 27.0042 20.8188 26.6667 21.3169L26.1041 22.2508C26.7792 22.5621 27.5668 22.8111 28.4669 22.9979C29.3671 23.1847 30.436 23.2469 31.7862 23.3092C33.924 23.3714 35.7243 22.9979 37.1308 22.1885C38.5372 21.3791 39.2686 20.3207 39.3248 19.0133C39.3811 18.1416 39.0436 17.3323 38.3122 16.5851C37.6934 15.838 36.5682 15.2154 34.9367 14.7174Z" fill="#2D2555"/>
<defs>
<linearGradient id="paint0_linear_10829_5197" x1="17.7019" y1="30.9962" x2="1.67904" y2="19.0639" gradientUnits="userSpaceOnUse">
<stop offset="0.089" stop-color="#E76D0A"/>
<stop offset="0.4723" stop-color="#DA0E15"/>
<stop offset="0.5627" stop-color="#D50F15"/>
<stop offset="0.6721" stop-color="#C61215"/>
<stop offset="0.7907" stop-color="#AE1716"/>
<stop offset="0.8602" stop-color="#9C1A16"/>
</linearGradient>
<linearGradient id="paint1_linear_10829_5197" x1="2.72239" y1="7.26427" x2="20.1792" y2="7.26427" gradientUnits="userSpaceOnUse">
<stop stop-color="#77B12B"/>
<stop offset="0.4813" stop-color="#2C6B32"/>
<stop offset="1" stop-color="#264730"/>
</linearGradient>
<linearGradient id="paint2_linear_10829_5197" x1="24.9805" y1="7.73916" x2="6.529" y2="18.2252" gradientUnits="userSpaceOnUse">
<stop stop-color="#CED200"/>
<stop offset="0.2325" stop-color="#8DB924"/>
<stop offset="1" stop-color="#007B36"/>
</linearGradient>
<linearGradient id="paint3_linear_10829_5197" x1="-0.000393811" y1="12.6125" x2="13.5238" y2="12.6125" gradientUnits="userSpaceOnUse">
<stop stop-color="#E76D0A"/>
<stop offset="0.00608115" stop-color="#E76B0A"/>
<stop offset="0.1556" stop-color="#E03910"/>
<stop offset="0.2689" stop-color="#DC1A14"/>
<stop offset="0.3321" stop-color="#DA0E15"/>
<stop offset="0.475" stop-color="#D50F15"/>
<stop offset="0.6479" stop-color="#C61215"/>
<stop offset="0.8355" stop-color="#AE1716"/>
<stop offset="0.9453" stop-color="#9C1A16"/>
<stop offset="1" stop-color="#9C1A16"/>
</linearGradient>
</defs>
</svg>
