<?xml version="1.0" encoding="utf-8"?>
<!-- Generator: Adobe Illustrator 24.0.1, SVG Export Plug-In . SVG Version: 6.00 Build 0)  -->
<svg version="1.1" id="Layer_1" xmlns="http://www.w3.org/2000/svg" xmlns:xlink="http://www.w3.org/1999/xlink" x="0px" y="0px"
	 viewBox="0 0 80 26" style="enable-background:new 0 0 80 26;" xml:space="preserve">
<style type="text/css">
	.st0{fill:url(#SVGID_1_);}
	.st1{fill:url(#SVGID_2_);}
	.st2{fill:url(#SVGID_3_);}
	.st3{fill:url(#SVGID_4_);}
	.st4{fill:#2D2555;}
</style>
<linearGradient id="SVGID_1_" gradientUnits="userSpaceOnUse" x1="17.6987" y1="0.1975" x2="2.865" y2="12.4225" gradientTransform="matrix(1 0 0 -1 0 28)">
	<stop  offset="8.900001e-02" style="stop-color:#E76D0A"/>
	<stop  offset="0.4723" style="stop-color:#DA0E15"/>
	<stop  offset="0.5627" style="stop-color:#D50F15"/>
	<stop  offset="0.6721" style="stop-color:#C61215"/>
	<stop  offset="0.7907" style="stop-color:#AE1716"/>
	<stop  offset="0.8602" style="stop-color:#9C1A16"/>
</linearGradient>
<path class="st0" d="M0.1,18.3c0,3.7,6.7,7.4,17.4,7c0,0,0-2.3,0-3.4c0-2.6-2.8-2.3-5.1-2.3c-5.1,0.1-8.2-1.3-10.7-3.6
	c-1-1-1.6-2.4-1.6-3.5V18.3z"/>
<linearGradient id="SVGID_2_" gradientUnits="userSpaceOnUse" x1="2.7226" y1="21.5961" x2="20.1629" y2="21.5961" gradientTransform="matrix(1 0 0 -1 0 28)">
	<stop  offset="0" style="stop-color:#77B12B"/>
	<stop  offset="0.4813" style="stop-color:#2C6B32"/>
	<stop  offset="1" style="stop-color:#264730"/>
</linearGradient>
<path class="st1" d="M2.8,0c0,0,0,2.3,0,3.4c0,2.6,2.8,2.3,5.1,2.3C13,5.6,16.1,7,18.6,9.3c1,1,1.6,2.4,1.6,3.5V7.1
	c0-3.5-6-7-15.9-7C3.8,0,3.3,0,2.8,0z"/>
<linearGradient id="SVGID_3_" gradientUnits="userSpaceOnUse" x1="24.996" y1="21.1921" x2="7.504" y2="10.1911" gradientTransform="matrix(1 0 0 -1 0 28)">
	<stop  offset="0" style="stop-color:#CED200"/>
	<stop  offset="0.2325" style="stop-color:#8DB924"/>
	<stop  offset="1" style="stop-color:#007B36"/>
</linearGradient>
<path class="st2" d="M17.9,9.5c-1.2,0.4-2.8,0.6-4.2,0.8c-3.4,0.5-7,0.8-7.1,4.1V21c5.9-0.5,13.3-4.2,13.5-7.8c0-0.1,0-0.2,0-0.3
	c0-0.5-0.1-5.6-0.1-5.6C19.6,9,17.9,9.5,17.9,9.5z"/>
<linearGradient id="SVGID_4_" gradientUnits="userSpaceOnUse" x1="0" y1="16.8238" x2="13.5243" y2="16.8238" gradientTransform="matrix(1 0 0 -1 0 28)">
	<stop  offset="0" style="stop-color:#E76D0A"/>
	<stop  offset="6.081150e-03" style="stop-color:#E76B0A"/>
	<stop  offset="0.1556" style="stop-color:#E03910"/>
	<stop  offset="0.2689" style="stop-color:#DC1A14"/>
	<stop  offset="0.3321" style="stop-color:#DA0E15"/>
	<stop  offset="0.475" style="stop-color:#D50F15"/>
	<stop  offset="0.6479" style="stop-color:#C61215"/>
	<stop  offset="0.8355" style="stop-color:#AE1716"/>
	<stop  offset="0.9453" style="stop-color:#9C1A16"/>
	<stop  offset="1" style="stop-color:#9C1A16"/>
</linearGradient>
<path class="st3" d="M0,12.1c0,0.1,0,0.2,0,0.3c0,0.5,0.1,5.7,0.1,5.7c0.5-1.7,2.2-2.4,2.2-2.4c1.2-0.4,2.8-0.6,4.2-0.8
	c3.4-0.5,7.1-0.8,7.1-4.2V4.3C7.7,4.8,0.3,8.5,0,12.1z"/>
<path class="st4" d="M49.4,7.2h-6.6V21h3.7V16h2.9c6,0,6.3-3.4,6.3-4.6C55.7,10.1,55,7.2,49.4,7.2z M48.7,14.3h-2.3V8.9h2.3
	c2.9,0,3.5,1.6,3.5,2.6S51.8,14.3,48.7,14.3z"/>
<path class="st4" d="M78.3,9.3c0.5,0.1,0.9,0.1,1.1-0.3C79.5,8.7,80,7.8,80,7.8c-0.6-0.3-1.2-0.5-2-0.6c-0.7-0.1-1.6-0.2-2.6-0.2
	c-2.8,0-4.9,0.7-6.5,2c-1.5,1.4-2.3,3-2.3,5c0,2,0.7,3.7,2.3,5.1c1.5,1.4,3.7,2,6.4,2c2,0,3.6-0.3,4.7-0.8c0,0-0.6-1.1-0.7-1.4
	c-0.2-0.4-0.7-0.2-1.2-0.2c-1.2,0.2-4.2,0.8-6.1-1.1c-0.9-1-1.4-2.2-1.4-3.7c0-1.5,0.4-2.8,1.4-3.7C74,8.3,77.7,9.3,78.3,9.3z"/>
<path class="st4" d="M61.1,7.2h-2v13.9H63V8.6C63.1,7.7,62.5,7.2,61.1,7.2z"/>
<path class="st4" d="M34.9,13.1c-1.6-0.5-2.6-0.8-3.3-1.2c-0.6-0.3-0.8-0.8-0.8-1.4c0-0.6,0.3-1.1,0.9-1.4c0.6-0.3,1.4-0.5,2.5-0.5
	c0.7,0,1.4,0.1,1.9,0.2C36.4,9,36.6,9,36.8,9.1C37.4,9.3,38,9,38.3,8.6l0.5-0.7c-0.6-0.2-1.3-0.5-2.1-0.6C35.8,7.1,34.8,7,33.7,7
	c-2.1-0.1-3.8,0.3-5.1,1c-1.3,0.7-2,1.6-2,2.8c-0.1,0.7,0.3,1.5,1,2.1c0.7,0.7,1.8,1.2,3.3,1.6c1.5,0.5,2.5,0.8,3.1,1.2
	c0.6,0.3,0.8,0.8,0.8,1.3c0,0.6-0.4,1-1.1,1.4c-0.7,0.3-1.6,0.5-2.7,0.5c-0.8,0-1.5-0.1-2.2-0.2c-0.3-0.1-0.5-0.1-0.8-0.2
	c-0.6-0.2-1.1,0.2-1.5,0.6l-0.6,0.8c0.7,0.3,1.5,0.5,2.4,0.7c0.9,0.2,2,0.2,3.3,0.3c2.1,0.1,3.9-0.3,5.3-1c1.4-0.7,2.1-1.7,2.2-2.9
	c0.1-0.8-0.3-1.5-1-2.2C37.7,14.1,36.6,13.5,34.9,13.1z"/>
</svg>
