<svg id="b5c203a2-786a-419c-b597-2a87921e00fb" data-name="Layer 1" xmlns="http://www.w3.org/2000/svg" viewBox="0 0 80 27.92"><defs><style>.e5e083ad-b067-4baf-9338-514627beebdf{fill:#ff4000;}.a4321ad9-27d4-4944-aae3-7415a9cbc301{fill:#7f7f7f;}</style></defs><title>sugoi</title><path class="e5e083ad-b067-4baf-9338-514627beebdf" d="M5.26,3,.07,6A15.3,15.3,0,0,0,1.69,7L3.4,8A33.81,33.81,0,0,0,6.92,6.06c1.9-1.1,3.47-2,3.5-2S17.67,8.22,20.57,9.9l.23.14V6l-5.12-3-5.18-3C10.43.06,9.09.81,5.26,3Z" transform="translate(0 -0.08)"/><path class="a4321ad9-27d4-4944-aae3-7415a9cbc301" d="M28.18,6.74A4.93,4.93,0,0,0,25.1,8.06a3.37,3.37,0,0,0-1,1.82,3.68,3.68,0,0,0-.06,1,2.87,2.87,0,0,0,.33,1.48c.53,1.1,1.48,1.84,3.48,2.68s2.63,1.34,2.69,2.24a1.43,1.43,0,0,1-.93,1.52,2.62,2.62,0,0,1-.52.2,7,7,0,0,1-1.81.06,9.83,9.83,0,0,1-2.48-.67,2.23,2.23,0,0,0-.35-.12,21.75,21.75,0,0,0-.58,2.24,7.35,7.35,0,0,0,1.21.49,10.26,10.26,0,0,0,3.33.45A6.19,6.19,0,0,0,31,21a4.11,4.11,0,0,0,2.6-4.23A3.91,3.91,0,0,0,31.87,14a12,12,0,0,0-2.47-1.33,5.21,5.21,0,0,1-2.12-1.27,1.49,1.49,0,0,1,.21-1.87,2.69,2.69,0,0,1,1-.39,6.84,6.84,0,0,1,2,.07,8.72,8.72,0,0,1,1.66.54c.21.09.31.12.32.09.08-.24.53-2.21.51-2.24A8.83,8.83,0,0,0,31.52,7a7.59,7.59,0,0,0-2.3-.3Z" transform="translate(0 -0.08)"/><path class="a4321ad9-27d4-4944-aae3-7415a9cbc301" d="M54.3,6.76a7.16,7.16,0,0,0-5.55,3.31,8.73,8.73,0,0,0-.67,6.81,6.45,6.45,0,0,0,3.3,3.78,10.14,10.14,0,0,0,5.92.68,14,14,0,0,0,2.7-.66l.32-.12V14.72H57.64V19l-.15,0a7.49,7.49,0,0,1-4-.07A3.79,3.79,0,0,1,51,16.49a7.77,7.77,0,0,1,0-4.38,4.23,4.23,0,0,1,3.44-2.94,12.36,12.36,0,0,1,2.72,0,13.64,13.64,0,0,1,2.38.69s.09-.14.26-1c.1-.58.2-1.1.21-1.15s0-.12-.41-.28a9.23,9.23,0,0,0-2.3-.58A23,23,0,0,0,54.3,6.76Z" transform="translate(0 -0.08)"/><path class="a4321ad9-27d4-4944-aae3-7415a9cbc301" d="M67.56,6.76A6.79,6.79,0,0,0,62.49,9.9,8.26,8.26,0,0,0,61.44,13a12.91,12.91,0,0,0,0,2.24,6.93,6.93,0,0,0,3.18,5.16,8,8,0,0,0,7.26.31A6.38,6.38,0,0,0,75,17.62a8.44,8.44,0,0,0-.37-7.73A6.37,6.37,0,0,0,72,7.5a7.05,7.05,0,0,0-2.49-.74A14.1,14.1,0,0,0,67.56,6.76Zm1.55,2.32a3.84,3.84,0,0,1,3.32,2.84,7.7,7.7,0,0,1,0,4.36A3.88,3.88,0,0,1,69.82,19a4.76,4.76,0,0,1-2.62,0,4.13,4.13,0,0,1-2.73-3.51,10,10,0,0,1,0-2.68,4.85,4.85,0,0,1,1.16-2.52,3.74,3.74,0,0,1,2.1-1.12l.39-.06A5.68,5.68,0,0,1,69.11,9.08Z" transform="translate(0 -0.08)"/><path class="a4321ad9-27d4-4944-aae3-7415a9cbc301" d="M34.72,11.85c0,4.1,0,5,.06,5.25a4.9,4.9,0,0,0,1.4,2.8,5.94,5.94,0,0,0,4.4,1.58c2.84,0,4.85-1.25,5.6-3.48.29-.88.27-.55.29-6.07V7h-3v5c0,5.57,0,5.15-.29,5.77a2.4,2.4,0,0,1-1.89,1.34,5.49,5.49,0,0,1-1.57,0,2.4,2.4,0,0,1-1.93-1.84c-.09-.3-.09-.31-.1-5.27V7h-3Z" transform="translate(0 -0.08)"/><path class="a4321ad9-27d4-4944-aae3-7415a9cbc301" d="M77.12,14.1v7.14H80V7H77.12Z" transform="translate(0 -0.08)"/><path class="e5e083ad-b067-4baf-9338-514627beebdf" d="M8.68,9.06,7,10.05s13.54,7.84,13.8,8c0,0,0-.88,0-2v-2l-5.18-3c-2.85-1.65-5.19-3-5.21-3Z" transform="translate(0 -0.08)"/><path class="e5e083ad-b067-4baf-9338-514627beebdf" d="M0,12.07v2l5.18,3,5.21,3s3.45-1.93,3.45-2S.31,10.24,0,10.09C0,10.08,0,11,0,12.07Z" transform="translate(0 -0.08)"/><path class="e5e083ad-b067-4baf-9338-514627beebdf" d="M0,20.08v2L5.14,25a57.48,57.48,0,0,0,5.28,3c.13,0,.87-.42,5.26-2.95,2.82-1.62,5.1-3,5.08-3s-.79-.47-1.72-1c-1.56-.9-1.7-1-1.78-.92-.54.34-6.84,3.94-6.88,3.92S.26,18.24.09,18.14L0,18.08Z" transform="translate(0 -0.08)"/></svg>