<svg width="80" height="31" viewBox="0 0 80 31" fill="none" xmlns="http://www.w3.org/2000/svg">
<path d="M5.264 3.25425C2.42801 5.06476 0.0960087 6.56098 0.0720088 6.58754C0.0520088 6.60967 0.664008 7.02578 1.68801 7.68093C2.59601 8.26082 3.36801 8.75661 3.40401 8.77875C3.45601 8.81416 4.228 8.33608 6.92 6.61853C8.816 5.40562 10.392 4.41404 10.416 4.41404C10.448 4.41404 17.668 9.00451 20.572 10.8726L20.8 11.0186L20.792 8.80531L20.78 6.58754L15.66 3.3118C12.844 1.51457 10.512 0.0227737 10.476 0.000640869C10.432 -0.025919 9.088 0.810723 5.264 3.25425Z" fill="#FF4000"/>
<path d="M28.18 7.37531C26.696 7.60992 25.828 8.01718 25.096 8.82726C24.596 9.38502 24.312 9.99147 24.152 10.8458C24.084 11.1955 24.076 11.3814 24.092 11.9746C24.116 12.7891 24.16 13.0237 24.42 13.6125C24.952 14.8298 25.904 15.6443 27.9 16.5784C29.984 17.5566 30.532 18.0613 30.588 19.0529C30.636 19.8452 30.336 20.3941 29.664 20.7438C29.508 20.8235 29.272 20.9253 29.14 20.9652C28.82 21.0626 27.84 21.098 27.332 21.0316C26.568 20.9298 25.6 20.642 24.848 20.2879C24.664 20.2038 24.508 20.1418 24.496 20.1551C24.448 20.2082 23.884 22.5986 23.916 22.634C23.984 22.7093 24.7 23.0236 25.132 23.1697C26.248 23.5459 27.316 23.7053 28.46 23.6699C29.508 23.6389 30.164 23.4928 30.956 23.1165C32.74 22.2622 33.772 20.4074 33.56 18.4376C33.428 17.2246 32.876 16.2331 31.872 15.3964C31.3 14.9184 30.664 14.5421 29.4 13.9224C28.088 13.2849 27.544 12.9264 27.28 12.5191C26.892 11.9304 27 10.8768 27.492 10.4474C27.68 10.2792 28.104 10.0933 28.444 10.018C28.904 9.92507 29.86 9.96048 30.436 10.0933C30.936 10.2084 31.668 10.474 32.096 10.6865C32.308 10.7927 32.408 10.8281 32.42 10.7883C32.504 10.5271 32.952 8.34032 32.928 8.31376C32.856 8.23408 31.904 7.81798 31.524 7.70288C30.732 7.45942 30.228 7.38416 29.22 7.37088C28.716 7.36203 28.248 7.36646 28.18 7.37531Z" fill="#7F7F7F"/>
<path d="M54.3001 7.39758C51.8521 7.68974 49.8601 9.00004 48.7481 11.054C47.6281 13.1124 47.3561 16.1934 48.0801 18.5971C48.6321 20.4297 49.8121 21.9259 51.3841 22.7758C52.9761 23.639 54.9561 23.8914 57.3001 23.5284C58.2441 23.3779 59.3001 23.0946 59.9961 22.798L60.3201 22.6607V19.4293V16.2022H58.9801H57.6401V18.5484V20.8901L57.4921 20.9343C56.2201 21.3106 54.6721 21.284 53.5001 20.8635C52.2601 20.4208 51.4281 19.5267 50.9841 18.1588C50.5641 16.8618 50.5601 14.6839 50.9761 13.3116C51.5161 11.5277 52.6481 10.4608 54.4241 10.0624C54.9201 9.95177 56.5521 9.95177 57.1361 10.0624C57.8481 10.1997 58.9681 10.5538 59.5201 10.8194C59.5721 10.846 59.6121 10.6689 59.7761 9.68617C59.8801 9.0443 59.9761 8.46883 59.9881 8.40686C60.0081 8.29177 59.9921 8.28292 59.5761 8.10142C58.8041 7.76942 58.1761 7.59235 57.2801 7.45513C56.7241 7.37102 54.8201 7.33561 54.3001 7.39758Z" fill="#7F7F7F"/>
<path d="M67.5599 7.3976C65.4199 7.6632 63.6079 8.90709 62.4879 10.8681C61.9919 11.7446 61.5799 13.108 61.4399 14.3431C61.3839 14.8743 61.3919 16.2731 61.4599 16.8264C61.7599 19.3275 62.8679 21.3195 64.6399 22.5368C65.7639 23.3071 67.0439 23.6833 68.5599 23.6833C69.8399 23.6833 70.9079 23.4266 71.896 22.8777C73.3 22.103 74.276 21.0008 74.964 19.4116C76.1 16.791 75.948 13.3072 74.592 10.8593C73.968 9.7216 73.108 8.84955 72 8.21653C71.2079 7.76501 70.4159 7.50384 69.5119 7.3976C69.0639 7.34005 67.9999 7.34447 67.5599 7.3976ZM69.1079 9.96507C70.7239 10.1643 71.904 11.2798 72.432 13.1036C72.852 14.5511 72.852 16.4811 72.432 17.9287C71.988 19.4603 71.0679 20.5138 69.8239 20.9122C69.0079 21.1778 67.9839 21.1646 67.1999 20.8857C65.7439 20.3678 64.8079 19.0353 64.4719 16.9991C64.3519 16.2642 64.3519 14.768 64.4719 14.0332C64.6679 12.8424 65.0399 11.9482 65.6279 11.2444C66.1599 10.6069 66.9639 10.1333 67.7279 10.0093C67.8879 9.98278 68.0639 9.95179 68.1199 9.94294C68.3319 9.91195 68.7399 9.91638 69.1079 9.96507Z" fill="#7F7F7F"/>
<path d="M34.72 13.0239C34.72 17.5657 34.728 18.5041 34.78 18.8361C34.96 20.08 35.42 21.1026 36.176 21.9392C37.216 23.0946 38.704 23.6833 40.58 23.6833C43.42 23.6833 45.432 22.2978 46.176 19.8277C46.468 18.8627 46.452 19.2257 46.468 13.1124L46.484 7.6145H44.984H43.48L43.472 13.1567C43.456 19.3275 43.48 18.8583 43.184 19.5444C42.84 20.3501 42.172 20.8724 41.292 21.0229C40.84 21.0982 40.152 21.0849 39.72 20.9831C38.728 20.7573 38.072 20.0668 37.788 18.9512C37.7 18.6148 37.7 18.6015 37.688 13.1124L37.676 7.6145H36.2H34.72V13.0239Z" fill="#7F7F7F"/>
<path d="M77.12 15.5161V23.4177H78.56H80V15.5161V7.61447H78.56H77.12V15.5161Z" fill="#7F7F7F"/>
<path d="M8.68393 9.93835C7.75193 10.536 6.97993 11.0273 6.97193 11.0362C6.96393 11.0494 20.5079 19.7124 20.7719 19.8629C20.7879 19.8718 20.7999 18.8891 20.7999 17.6761V15.4717L15.6199 12.1605C12.7719 10.3412 10.4279 8.85382 10.4119 8.85382C10.3959 8.85382 9.61593 9.34075 8.68393 9.93835Z" fill="#FF4000"/>
<path d="M0 13.2672V15.4762L5.17601 18.7784C8.02402 20.5978 10.368 22.094 10.392 22.0984C10.436 22.1117 13.84 19.9604 13.84 19.9161C13.84 19.8984 0.308001 11.2398 0.0320001 11.0805C0.012 11.0716 0 12.0543 0 13.2672Z" fill="#FF4000"/>
<path d="M0.008 22.1383L0.02 24.3605L5.14 27.6274C9.536 30.4383 10.28 30.8987 10.416 30.8987C10.548 30.8987 11.292 30.4383 15.684 27.6318C18.496 25.839 20.78 24.3517 20.76 24.3295C20.744 24.3118 19.968 23.8072 19.04 23.214C17.484 22.2224 17.344 22.1428 17.264 22.2003C16.72 22.581 10.416 26.5606 10.38 26.5429C10.328 26.5252 0.264 20.1021 0.088 19.9825L0 19.9161L0.008 22.1383Z" fill="#FF4000"/>
</svg>
